<svg xmlns="http://www.w3.org/2000/svg" viewBox="0 0 827.34 377.73"><defs><style>.cls-1{fill:#fff;}.cls-2{fill:#ccc;}</style></defs><g id="Layer_2" data-name="Layer 2"><g id="Capa_2" data-name="Capa 2"><path class="cls-1" d="M251.35,173.35c.31-2.13-.64-4.1-.7-6.23a38.12,38.12,0,0,1,1.58-12.19,59.63,59.63,0,0,1,8.27-16.75,94.63,94.63,0,0,1,10.32-12.62,129.83,129.83,0,0,1,14.31-12.66c4.32-3.28,8.78-6.28,13.33-9.17,2.76-1.75,5.74-3,8.47-4.75,3.15-2,6.69-3.09,10-4.8a75.48,75.48,0,0,1,7.9-3.21s4-1.49,8.61-2.83a213.42,213.42,0,0,1,32.12-6.33,123.48,123.48,0,0,1,19.68-1c5.43.27,9.67.41,11.86.59,3,.25,5.78.5,9.53,1.15.94.16,3.36.6,6.51,1.38a84.61,84.61,0,0,1,15.83,5.27,70.25,70.25,0,0,1,13.92,8.28,73.88,73.88,0,0,1,18.46,21,113.54,113.54,0,0,1,7,13.94,34.91,34.91,0,0,1,1.11,3.51c1.17,4.58-.55,8.39-2.78,11.95a31.38,31.38,0,0,1-5.75,6.8,71.72,71.72,0,0,1-9,7,157.8,157.8,0,0,1-20.46,10.87c-4,1.78-8.08,3.18-12.09,4.86-7,2.93-14.3,4.61-21.44,6.91-7.9,2.55-16,4.05-24.05,5.74-11.6,2.42-23.33,4-35.09,5.27-8.25.89-16.54,1.41-24.86,1.63a192.69,192.69,0,0,1-22.15-1.07,80.11,80.11,0,0,1-21.07-4.65,37.23,37.23,0,0,1-14.36-9A17.58,17.58,0,0,1,251.35,173.35Z"/><path class="cls-1" d="M251.05,171.06c.47.15.57.47.72.83a13.64,13.64,0,0,0,5,5.76,38.19,38.19,0,0,0,11.14,4.9c5.71,1.66,11.71,2.26,17.76,2.89,5.81.6,11.68.26,17.49.47s11.37-.33,17.06-.67c12.44-.72,24.78-2.37,37.1-4.13,7.69-1.1,15.33-2.47,23-3.85a134.18,134.18,0,0,0,13.77-3c6.7-2,13.69-3.1,20.26-5.36,4.43-1.53,9.1-2.53,13.42-4.25,3.66-1.45,7.5-2.55,11.09-4.1,5.19-2.23,10.39-4.49,15.25-7.18a49.07,49.07,0,0,0,9.08-6.19c2.54-2.31,4.87-4.76,5.81-7.84.36-1.19-.13-2.34.42-3.48,4,5.1,5.88,10.67,4.65,16.92-1.6,4.42-4.76,8.08-9,11.27a88.7,88.7,0,0,1-10.91,6.83c-2.69,1.46-5.62,2.51-8.34,3.88-3,1.5-6.31,2.43-9.38,3.76-4.25,1.84-8.85,2.86-13.19,4.44-6.63,2.4-13.65,3.69-20.41,5.66-8,2.35-16.32,3.58-24.46,5.43a316.92,316.92,0,0,1-32.85,5.32,59.37,59.37,0,0,1-6.88.61c-8.05,0-16.15,1.14-24.16.76-5-.24-10-.08-15-.58A168.12,168.12,0,0,1,280,197.49a90.36,90.36,0,0,1-11.72-3.23,44,44,0,0,1-12.39-6.57,18.83,18.83,0,0,1-5-6.48A16.91,16.91,0,0,1,251.05,171.06Z"/><path class="cls-1" d="M255.24,239.32a126.92,126.92,0,0,0,10.48,9.76,5,5,0,0,0,.86.61c3,1.66,5.74,3.81,8.71,5.56a98,98,0,0,0,12.26,6.13c4.63,1.91,9.36,3.52,14.11,5.09,5,1.67,10.12,2.58,15.18,3.84a133,133,0,0,0,19.31,3.11c3.5.34,7.06.33,10.48.95,8.52,1.55,17.09,1.18,25.63,1.2,4.55,0,9.1-.78,13.64-1.33,3.65-.44,7.3-.92,10.92-1.62,4-.78,7.92-1.84,11.88-2.74a114.2,114.2,0,0,0,13-4.15c4.64-1.66,9.16-3.74,13.65-5.85a126.42,126.42,0,0,0,14.32-8.13,98.56,98.56,0,0,0,13.76-10.69,62.35,62.35,0,0,0,7.64-8.28c.19.51.36.93.52,1.35.1,6.88-2.26,12.92-5.59,18.6a68.49,68.49,0,0,1-12.58,15.36A103.7,103.7,0,0,1,440,278.71,128.7,128.7,0,0,1,427.32,286,139.74,139.74,0,0,1,410,293.22c-3.89,1.39-7.9,2.1-11.81,3.27-6.64,2-13.48,2.26-20.24,3.2-9,1.26-18.06,1-27.05.45-4.89-.33-9.82-.83-14.71-1.51s-10.11-1.08-15-2.42c-4.1-1.13-8.34-1.74-12.33-3.25-3.62-1.38-7.36-2.41-10.89-4a92.26,92.26,0,0,1-13-7,77.68,77.68,0,0,1-14.36-12.16,64.61,64.61,0,0,1-10.75-16.18A53.42,53.42,0,0,1,255.24,239.32Z"/><path class="cls-2" d="M256.54,207.49c1,.89,1.95,1.72,2.86,2.62a36.86,36.86,0,0,0,5.9,4.57,99.07,99.07,0,0,0,10.23,5.82c3.77,1.88,7.67,2.9,11.41,4.79a16,16,0,0,0,3.84,1.17c7,1.56,13.87,3.34,20.9,4,3.62.32,7.25.85,10.88,1,2.94.08,5.89.32,8.82.21,4.53-.18,9.08-.7,13.59-.51,10.07.43,38.63-4.78,43.06-5.93,3.92-1,7.83-2.09,11.78-3a84.9,84.9,0,0,0,11.95-4.3c3.2-1.31,6.5-2.21,9.63-3.76,4-2,8.07-3.58,11.87-6,2.84-1.78,5.87-3.06,8.61-5.05,4.77-3.49,9.58-6.94,14.16-10.79a91.41,91.41,0,0,0,12.8-13.5,78,78,0,0,0,9.07-15.41l0,.17a30,30,0,0,0-5.83-20c-1.08-1.54-2.51-2.72-3.5-4.31-.86.3-.83,1.21-1,1.9a26.74,26.74,0,0,1-5.91,10.46,64.67,64.67,0,0,1-15,12.28,169.34,169.34,0,0,1-15.85,8.29c-4.47,2.13-9.19,3.61-13.76,5.48-6.18,2.54-12.71,4-19,6.09A143.69,143.69,0,0,1,381,187.92c-5.79,1.19-11.46,3-17.28,3.93-10,1.56-20.1,3.06-30.32,2.92-7.09-.09-14.16.25-21.29-.45A152,152,0,0,1,286.26,190a72.75,72.75,0,0,1-20.2-8.55c-5.31-3.4-9.91-7.61-12.48-13.89-.21-.51-.32-1.21-1.08-1.18-1.76,1.89-2.53,4.39-3.41,6.79-2.49,6.79-2,13.71.09,20.55A42.69,42.69,0,0,0,256.25,207,2,2,0,0,1,256.54,207.49Z"/><path class="cls-2" d="M473.1,206.91a46.07,46.07,0,0,1-4.08,7.25,58.28,58.28,0,0,1-7.5,9.06c-2.21,2.1-4.51,4.15-6.85,6.07-2.54,2.1-5.37,3.42-7.84,5.66a16.79,16.79,0,0,1-3.55,2.05c-3.31,1.82-6.59,3.66-10,5.22-3.89,1.78-7.87,3.09-11.74,4.81-4.21,1.88-8.59,2.47-12.81,4-6.35,2.37-12.93,2.77-19.39,4.1a120.26,120.26,0,0,1-18.7,1.92,235.63,235.63,0,0,1-24.93.16c-7.11-.42-14.23-.95-21.29-2-7.35-1.06-14.6-3.11-21.88-4.87-4.68-1.14-9.11-3.28-13.61-5.1A75.88,75.88,0,0,1,275,237.38a63.55,63.55,0,0,1-12-10.52,62.44,62.44,0,0,1-12.34-21.71c-.21-.63-.42-1.26-.62-1.91a38.32,38.32,0,0,0-2.72,9.78c-1.14,7.77.6,14.8,4.08,21.51a81.55,81.55,0,0,0,7.07,10.55c1.09,2.35,3.12,3.71,4.85,5.41a74,74,0,0,0,13.16,9.82c2.71,1.69,5.57,3,8.39,4.48,7.29,3.76,15,6.14,22.74,8.52,4.93,1.52,10,2.28,15.06,3.42a104.39,104.39,0,0,0,13.45,1.89c3.56.34,7.16.47,10.67,1a81.66,81.66,0,0,0,11.65,1c7,.08,14,.44,21.06-.65,6.73-1.05,13.56-1.23,20.21-3.09,4.81-1.35,9.72-2.18,14.48-3.82,5.6-1.93,11.08-4.1,16.5-6.54a115.67,115.67,0,0,0,19.76-11.43,84.4,84.4,0,0,0,15.8-14.16c.45-.53.85-1.16,1.67-.87-.46-2.53,1.45-3.89,2.53-5.57,3.67-5.78,6.31-11.89,5.14-19.07A30.35,30.35,0,0,0,473.1,206.91Z"/><path class="cls-1" d="M253,151.21a61.78,61.78,0,0,1,8-14.87c5-6.78,10-10.62,16-15.25a130.83,130.83,0,0,1,23.86-14.46A156.48,156.48,0,0,1,316.73,100"/><path class="cls-1" d="M52.93,87.5v23.44A100.14,100.14,0,0,1,84.18,89.26,89.91,89.91,0,0,1,120.12,82q41.59,0,70.7,31.45t29.1,80.66q0,47.46-30.08,79.4t-71.29,31.93a88.51,88.51,0,0,1-34.17-6.54q-15.82-6.56-31.45-21.39V377.73H0V87.5ZM109,131.25q-25.19,0-41.79,17.19t-16.6,44.92q0,28.32,16.6,45.8T109,256.64q24.42,0,41.12-17.77t16.7-45.32q0-27.33-16.41-44.82T109,131.25Z"/><path class="cls-1" d="M526.56,9.18h53.32V87.5h31.64v45.9H579.88V300H526.56V133.4H499.22V87.5h27.34Z"/><path class="cls-1" d="M660.84,0a32.61,32.61,0,0,1,24,10.16,33.71,33.71,0,0,1,10,24.61A33.33,33.33,0,0,1,685,59.08a32.2,32.2,0,0,1-23.76,10.06A32.7,32.7,0,0,1,637,58.89,34.29,34.29,0,0,1,627,34a32.79,32.79,0,0,1,9.93-24A32.62,32.62,0,0,1,660.84,0Z"/><rect class="cls-1" x="634.18" y="87.5" width="53.32" height="212.5"/><path class="cls-1" d="M742.38,9.18H795.7V87.5h31.64v45.9H795.7V300H742.38V133.4H715V87.5h27.34Z"/></g></g></svg>